<?xml version="1.0" encoding="UTF-8"?>
<svg id="Layer_1" xmlns="http://www.w3.org/2000/svg" xmlns:xlink="http://www.w3.org/1999/xlink" version="1.1" viewBox="0 0 3000 3000">
  <!-- Generator: Adobe Illustrator 30.3.0, SVG Export Plug-In . SVG Version: 2.1.3 Build 182)  -->
  <defs>
    <style>
      .st0 {
        fill: #00e5cc;
      }

      .st1 {
        fill: url(#linear-gradient2);
      }

      .st2 {
        fill: url(#linear-gradient1);
      }

      .st3 {
        fill: url(#linear-gradient);
      }

      .st4 {
        fill: #050810;
      }

      .st5 {
        fill: none;
        stroke: #ff4d4d;
        stroke-linecap: round;
        stroke-width: 41px;
      }
    </style>
    <linearGradient id="linear-gradient" x1="9.08" y1="2994.81" x2="26.41" y2="2977.48" gradientTransform="translate(-74 300111) scale(90 -100)" gradientUnits="userSpaceOnUse">
      <stop offset="0" stop-color="#ff4d4d"/>
      <stop offset="1" stop-color="#991b1b"/>
    </linearGradient>
    <linearGradient id="linear-gradient1" x1="23.5" y1="2946.55" x2="40.83" y2="2929.22" gradientTransform="translate(-18.95 65408.8) scale(23.07 -21.78)" gradientUnits="userSpaceOnUse">
      <stop offset="0" stop-color="#ff4d4d"/>
      <stop offset="1" stop-color="#991b1b"/>
    </linearGradient>
    <linearGradient id="linear-gradient2" x1="88.2" y1="2947.07" x2="105.53" y2="2929.75" gradientTransform="translate(71.73 65408.8) scale(23.07 -21.78)" gradientUnits="userSpaceOnUse">
      <stop offset="0" stop-color="#ff4d4d"/>
      <stop offset="1" stop-color="#991b1b"/>
    </linearGradient>
  </defs>
  <path class="st3" d="M1500,655.55c-519.86,0-779.79,433.22-779.79,779.79s259.93,693.15,519.86,779.79v173.29h173.29v-173.29s86.64,34.66,173.29,0v173.29h173.29v-173.29c259.93-86.64,519.86-433.22,519.86-779.79s-259.93-779.79-779.79-779.79Z"/>
  <path class="st2" d="M806.85,1262.05c-259.93-86.64-346.57,86.64-259.93,259.93,86.64,173.29,259.93,86.64,346.57-86.64,51.99-121.3,0-173.29-86.64-173.29Z"/>
  <path class="st1" d="M2193.15,1262.05c259.93-86.64,346.57,86.64,259.93,259.93-86.64,173.29-259.93,86.64-346.57-86.64-51.99-121.3,0-173.29,86.64-173.29Z"/>
  <path class="st5" d="M1240.07,742.19c-115.52-115.52-202.17-155.96-259.93-121.3"/>
  <path class="st5" d="M1759.93,742.19c115.52-115.52,202.17-155.96,259.93-121.3"/>
  <circle class="st4" cx="1240.07" cy="1088.76" r="103.97"/>
  <circle class="st4" cx="1759.93" cy="1088.76" r="103.97"/>
  <circle class="st0" cx="1257.4" cy="1071.44" r="43.32"/>
  <circle class="st0" cx="1777.26" cy="1071.44" r="43.32"/>
</svg>