<svg width="882" height="404" viewBox="0 0 882 404" fill="none" xmlns="http://www.w3.org/2000/svg">
<rect x="0.5" y="0.5" width="881" height="403" rx="47.5" stroke="black" stroke-dasharray="10 5"/>
<path d="M71.0034 39.7231C68.4053 39.7231 66.5542 41.4995 66.5542 43.9316V43.9482C66.5542 46.2227 68.1646 47.8994 70.4639 47.8994C72.1074 47.8994 73.1533 47.061 73.5933 46.1147H73.7593C73.7593 46.2061 73.751 46.2974 73.751 46.3887C73.6597 48.6797 72.8545 50.5391 70.9536 50.5391C69.8994 50.5391 69.1606 49.9912 68.8452 49.1528L68.8203 49.0698H66.7119L66.7285 49.1611C67.1104 50.9956 68.7539 52.2988 70.9536 52.2988C73.9668 52.2988 75.7847 49.9082 75.7847 45.874V45.8574C75.7847 41.541 73.5601 39.7231 71.0034 39.7231ZM70.9951 46.2559C69.6338 46.2559 68.646 45.2598 68.646 43.8735V43.8569C68.646 42.5205 69.7002 41.4663 71.02 41.4663C72.3481 41.4663 73.3857 42.5371 73.3857 43.9067V43.9233C73.3857 45.2764 72.3481 46.2559 70.9951 46.2559ZM78.8732 44.2388C79.6369 44.2388 80.193 43.6577 80.193 42.9272C80.193 42.1885 79.6369 41.6157 78.8732 41.6157C78.1179 41.6157 77.5534 42.1885 77.5534 42.9272C77.5534 43.6577 78.1179 44.2388 78.8732 44.2388ZM78.8732 50.3979C79.6369 50.3979 80.193 49.8252 80.193 49.0864C80.193 48.3477 79.6369 47.7749 78.8732 47.7749C78.1179 47.7749 77.5534 48.3477 77.5534 49.0864C77.5534 49.8252 78.1179 50.3979 78.8732 50.3979ZM87.7723 52H89.8226V49.7007H91.433V47.9326H89.8226V40.022H86.7928C85.1659 42.4956 83.4642 45.2515 81.912 47.9492V49.7007H87.7723V52ZM83.9042 47.9824V47.8579C85.0663 45.8242 86.4525 43.6079 87.681 41.7319H87.8055V47.9824H83.9042ZM95.7168 52H97.8584V40.022H95.7251L92.5957 42.2217V44.2388L95.5757 42.1304H95.7168V52Z" fill="black"/>
<rect x="326.35" y="39" width="3.2" height="12" rx="1" fill="black"/>
<rect x="321.05" y="41.4" width="3.2" height="9.6" rx="1" fill="black"/>
<rect x="315.75" y="44" width="3.2" height="7" rx="1" fill="black"/>
<rect x="310.45" y="46.4" width="3.2" height="4.6" rx="1" fill="black"/>
<path d="M344.008 47.1335C344.712 47.1335 345.395 47.3184 345.998 47.6709L346.242 47.8137C346.427 47.9219 346.459 48.1753 346.308 48.3266L344.224 50.4043C344.096 50.5319 343.889 50.5319 343.761 50.4043L341.691 48.3399C341.54 48.1893 341.571 47.9372 341.754 47.8282L341.996 47.6847C342.604 47.3233 343.296 47.1335 344.008 47.1335Z" fill="black"/>
<path d="M344.008 43.3168C345.758 43.3168 347.439 43.8974 348.807 44.9724L349.001 45.1243C349.155 45.2455 349.168 45.4737 349.03 45.6121L347.786 46.8525C347.671 46.9673 347.489 46.9804 347.358 46.8835L347.207 46.7708C346.282 46.0838 345.167 45.7152 344.008 45.7152C342.842 45.7152 341.721 46.0883 340.794 46.7833L340.642 46.897C340.511 46.9947 340.329 46.9819 340.213 46.8668L338.97 45.6269C338.831 45.4887 338.844 45.2611 338.998 45.1397L339.19 44.9876C340.562 43.903 342.25 43.3168 344.008 43.3168Z" fill="black"/>
<path d="M344.008 39.5C346.786 39.5 349.441 40.4796 351.544 42.2752L351.723 42.4285C351.868 42.5524 351.877 42.7731 351.742 42.9078L350.502 44.1441C350.382 44.2639 350.19 44.2723 350.059 44.1635L349.906 44.0351C348.251 42.6512 346.176 41.8984 344.008 41.8984C341.833 41.8984 339.752 42.6564 338.095 44.049L337.941 44.178C337.811 44.2873 337.618 44.2791 337.498 44.1591L336.258 42.9229C336.124 42.7885 336.132 42.5681 336.276 42.4441L336.455 42.2908C338.56 40.4855 341.223 39.5 344.008 39.5Z" fill="black"/>
<rect x="360" y="40.5" width="21" height="9" rx="1.33" fill="black"/>
<path opacity="0.4" fill-rule="evenodd" clip-rule="evenodd" d="M363.6 39.5H377.4C378.397 39.5 379.084 39.5008 379.617 39.5444C380.139 39.587 380.425 39.6655 380.635 39.7725C381.105 40.0122 381.488 40.3946 381.728 40.865C381.834 41.0749 381.913 41.3608 381.956 41.8826C381.999 42.4161 382 43.1034 382 44.1V45.9C382 46.8966 381.999 47.5839 381.956 48.1174C381.913 48.6392 381.834 48.9251 381.728 49.135C381.488 49.6054 381.105 49.9878 380.635 50.2275C380.425 50.3345 380.139 50.413 379.617 50.4556C379.084 50.4992 378.397 50.5 377.4 50.5H363.6C362.603 50.5 361.916 50.4992 361.383 50.4556C360.861 50.413 360.575 50.3345 360.365 50.2275C359.895 49.9878 359.512 49.6054 359.272 49.135C359.166 48.9251 359.087 48.6392 359.044 48.1174C359.001 47.5839 359 46.8966 359 45.9V44.1C359 43.1034 359.001 42.4161 359.044 41.8826C359.087 41.3608 359.166 41.0749 359.272 40.865C359.512 40.3946 359.895 40.0122 360.365 39.7725C360.575 39.6655 360.861 39.587 361.383 39.5444C361.916 39.5008 362.603 39.5 363.6 39.5ZM358 44.1C358 42.1398 358 41.1597 358.381 40.411C358.717 39.7525 359.252 39.217 359.911 38.8815C360.66 38.5 361.64 38.5 363.6 38.5H377.4C379.36 38.5 380.34 38.5 381.089 38.8815C381.748 39.217 382.283 39.7525 382.619 40.411C383 41.1597 383 42.1398 383 44.1V45.9C383 47.8602 383 48.8403 382.619 49.589C382.283 50.2475 381.748 50.783 381.089 51.1185C380.34 51.5 379.36 51.5 377.4 51.5H363.6C361.64 51.5 360.66 51.5 359.911 51.1185C359.252 50.783 358.717 50.2475 358.381 49.589C358 48.8403 358 47.8602 358 45.9V44.1ZM384 47C384.828 46.8 385.5 46.1046 385.5 45C385.5 43.8954 384.828 43.2 384 43L384 45L384 47Z" fill="black"/>
<path d="M511.003 39.7231C508.405 39.7231 506.554 41.4995 506.554 43.9316V43.9482C506.554 46.2227 508.165 47.8994 510.464 47.8994C512.107 47.8994 513.153 47.061 513.593 46.1147H513.759C513.759 46.2061 513.751 46.2974 513.751 46.3887C513.66 48.6797 512.854 50.5391 510.954 50.5391C509.899 50.5391 509.161 49.9912 508.845 49.1528L508.82 49.0698H506.712L506.729 49.1611C507.11 50.9956 508.754 52.2988 510.954 52.2988C513.967 52.2988 515.785 49.9082 515.785 45.874V45.8574C515.785 41.541 513.56 39.7231 511.003 39.7231ZM510.995 46.2559C509.634 46.2559 508.646 45.2598 508.646 43.8735V43.8569C508.646 42.5205 509.7 41.4663 511.02 41.4663C512.348 41.4663 513.386 42.5371 513.386 43.9067V43.9233C513.386 45.2764 512.348 46.2559 510.995 46.2559ZM518.873 44.2388C519.637 44.2388 520.193 43.6577 520.193 42.9272C520.193 42.1885 519.637 41.6157 518.873 41.6157C518.118 41.6157 517.553 42.1885 517.553 42.9272C517.553 43.6577 518.118 44.2388 518.873 44.2388ZM518.873 50.3979C519.637 50.3979 520.193 49.8252 520.193 49.0864C520.193 48.3477 519.637 47.7749 518.873 47.7749C518.118 47.7749 517.553 48.3477 517.553 49.0864C517.553 49.8252 518.118 50.3979 518.873 50.3979ZM527.772 52H529.823V49.7007H531.433V47.9326H529.823V40.022H526.793C525.166 42.4956 523.464 45.2515 521.912 47.9492V49.7007H527.772V52ZM523.904 47.9824V47.8579C525.066 45.8242 526.453 43.6079 527.681 41.7319H527.806V47.9824H523.904ZM535.717 52H537.858V40.022H535.725L532.596 42.2217V44.2388L535.576 42.1304H535.717V52Z" fill="black"/>
<rect x="789.35" y="39" width="3.2" height="12" rx="1" fill="black"/>
<rect x="784.05" y="41.4" width="3.2" height="9.6" rx="1" fill="black"/>
<rect x="778.75" y="44" width="3.2" height="7" rx="1" fill="black"/>
<rect x="773.45" y="46.4" width="3.2" height="4.6" rx="1" fill="black"/>
<path d="M806.008 47.1335C806.712 47.1335 807.395 47.3184 807.998 47.6709L808.242 47.8137C808.427 47.9219 808.459 48.1753 808.308 48.3266L806.224 50.4043C806.096 50.5319 805.889 50.5319 805.761 50.4043L803.691 48.3399C803.54 48.1893 803.571 47.9372 803.754 47.8282L803.996 47.6847C804.604 47.3233 805.296 47.1335 806.008 47.1335Z" fill="black"/>
<path d="M806.008 43.3168C807.758 43.3168 809.438 43.8974 810.807 44.9724L811.001 45.1243C811.155 45.2455 811.168 45.4737 811.03 45.6121L809.786 46.8525C809.671 46.9673 809.489 46.9804 809.358 46.8835L809.207 46.7708C808.282 46.0838 807.167 45.7152 806.008 45.7152C804.842 45.7152 803.721 46.0883 802.794 46.7833L802.642 46.897C802.511 46.9947 802.329 46.9819 802.213 46.8668L800.97 45.6269C800.831 45.4887 800.844 45.2611 800.998 45.1397L801.19 44.9876C802.562 43.903 804.25 43.3168 806.008 43.3168Z" fill="black"/>
<path d="M806.008 39.5C808.786 39.5 811.441 40.4796 813.544 42.2752L813.723 42.4285C813.868 42.5524 813.877 42.7731 813.742 42.9078L812.502 44.1441C812.382 44.2639 812.19 44.2723 812.059 44.1635L811.906 44.0351C810.251 42.6512 808.176 41.8984 806.008 41.8984C803.833 41.8984 801.752 42.6564 800.095 44.049L799.941 44.178C799.811 44.2873 799.618 44.2791 799.498 44.1591L798.258 42.9229C798.124 42.7885 798.132 42.5681 798.276 42.4441L798.455 42.2908C800.56 40.4855 803.223 39.5 806.008 39.5Z" fill="black"/>
<rect x="821" y="40.5" width="21" height="9" rx="1.33" fill="black"/>
<path opacity="0.4" fill-rule="evenodd" clip-rule="evenodd" d="M824.6 39.5H838.4C839.397 39.5 840.084 39.5008 840.617 39.5444C841.139 39.587 841.425 39.6655 841.635 39.7725C842.105 40.0122 842.488 40.3946 842.728 40.865C842.834 41.0749 842.913 41.3608 842.956 41.8826C842.999 42.4161 843 43.1034 843 44.1V45.9C843 46.8966 842.999 47.5839 842.956 48.1174C842.913 48.6392 842.834 48.9251 842.728 49.135C842.488 49.6054 842.105 49.9878 841.635 50.2275C841.425 50.3345 841.139 50.413 840.617 50.4556C840.084 50.4992 839.397 50.5 838.4 50.5H824.6C823.603 50.5 822.916 50.4992 822.383 50.4556C821.861 50.413 821.575 50.3345 821.365 50.2275C820.895 49.9878 820.512 49.6054 820.272 49.135C820.166 48.9251 820.087 48.6392 820.044 48.1174C820.001 47.5839 820 46.8966 820 45.9V44.1C820 43.1034 820.001 42.4161 820.044 41.8826C820.087 41.3608 820.166 41.0749 820.272 40.865C820.512 40.3946 820.895 40.0122 821.365 39.7725C821.575 39.6655 821.861 39.587 822.383 39.5444C822.916 39.5008 823.603 39.5 824.6 39.5ZM819 44.1C819 42.1398 819 41.1597 819.381 40.411C819.717 39.7525 820.252 39.217 820.911 38.8815C821.66 38.5 822.64 38.5 824.6 38.5H838.4C840.36 38.5 841.34 38.5 842.089 38.8815C842.748 39.217 843.283 39.7525 843.619 40.411C844 41.1597 844 42.1398 844 44.1V45.9C844 47.8602 844 48.8403 843.619 49.589C843.283 50.2475 842.748 50.783 842.089 51.1185C841.34 51.5 840.36 51.5 838.4 51.5H824.6C822.64 51.5 821.66 51.5 820.911 51.1185C820.252 50.783 819.717 50.2475 819.381 49.589C819 48.8403 819 47.8602 819 45.9V44.1ZM845 47C845.828 46.8 846.5 46.1046 846.5 45C846.5 43.8954 845.828 43.2 845 43L845 45L845 47Z" fill="black"/>
<rect x="49.5" y="162" width="66" height="23" rx="11.5" fill="#007AFF"/>
<path d="M70.7866 167.723C68.1885 167.723 66.3374 169.5 66.3374 171.932V171.948C66.3374 174.223 67.9477 175.899 70.2471 175.899C71.8906 175.899 72.9365 175.061 73.3764 174.115H73.5425C73.5425 174.206 73.5342 174.297 73.5342 174.389C73.4429 176.68 72.6377 178.539 70.7368 178.539C69.6826 178.539 68.9438 177.991 68.6284 177.153L68.6035 177.07H66.4951L66.5117 177.161C66.8935 178.996 68.5371 180.299 70.7368 180.299C73.75 180.299 75.5679 177.908 75.5679 173.874V173.857C75.5679 169.541 73.3432 167.723 70.7866 167.723ZM70.7783 174.256C69.417 174.256 68.4292 173.26 68.4292 171.874V171.857C68.4292 170.521 69.4834 169.466 70.8032 169.466C72.1313 169.466 73.1689 170.537 73.1689 171.907V171.923C73.1689 173.276 72.1313 174.256 70.7783 174.256ZM78.6564 172.239C79.4201 172.239 79.9762 171.658 79.9762 170.927C79.9762 170.188 79.4201 169.616 78.6564 169.616C77.901 169.616 77.3366 170.188 77.3366 170.927C77.3366 171.658 77.901 172.239 78.6564 172.239ZM78.6564 178.398C79.4201 178.398 79.9762 177.825 79.9762 177.086C79.9762 176.348 79.4201 175.775 78.6564 175.775C77.901 175.775 77.3366 176.348 77.3366 177.086C77.3366 177.825 77.901 178.398 78.6564 178.398ZM87.5555 180H89.6058V177.701H91.2162V175.933H89.6058V168.022H86.576C84.9491 170.496 83.2474 173.251 81.6952 175.949V177.701H87.5555V180ZM83.6873 175.982V175.858C84.8495 173.824 86.2357 171.608 87.4642 169.732H87.5887V175.982H83.6873ZM95.5 180H97.6416V168.022H95.5083L92.3789 170.222V172.239L95.3589 170.13H95.5V180Z" fill="white"/>
<rect x="326.35" y="167" width="3.2" height="12" rx="1" fill="black"/>
<rect x="321.05" y="169.4" width="3.2" height="9.6" rx="1" fill="black"/>
<rect x="315.75" y="172" width="3.2" height="7" rx="1" fill="black"/>
<rect x="310.45" y="174.4" width="3.2" height="4.6" rx="1" fill="black"/>
<path d="M344.008 175.134C344.712 175.134 345.395 175.318 345.998 175.671L346.242 175.814C346.427 175.922 346.459 176.175 346.308 176.327L344.224 178.404C344.096 178.532 343.889 178.532 343.761 178.404L341.691 176.34C341.54 176.189 341.571 175.937 341.754 175.828L341.996 175.685C342.604 175.323 343.296 175.134 344.008 175.134Z" fill="black"/>
<path d="M344.008 171.317C345.758 171.317 347.439 171.897 348.807 172.972L349.001 173.124C349.155 173.245 349.168 173.474 349.03 173.612L347.786 174.853C347.671 174.967 347.489 174.98 347.358 174.883L347.207 174.771C346.282 174.084 345.167 173.715 344.008 173.715C342.842 173.715 341.721 174.088 340.794 174.783L340.642 174.897C340.511 174.995 340.329 174.982 340.213 174.867L338.97 173.627C338.831 173.489 338.844 173.261 338.998 173.14L339.19 172.988C340.562 171.903 342.25 171.317 344.008 171.317Z" fill="black"/>
<path d="M344.008 167.5C346.786 167.5 349.441 168.48 351.544 170.275L351.723 170.429C351.868 170.552 351.877 170.773 351.742 170.908L350.502 172.144C350.382 172.264 350.19 172.272 350.059 172.163L349.906 172.035C348.251 170.651 346.176 169.898 344.008 169.898C341.833 169.898 339.752 170.656 338.095 172.049L337.941 172.178C337.811 172.287 337.618 172.279 337.498 172.159L336.258 170.923C336.124 170.788 336.132 170.568 336.276 170.444L336.455 170.291C338.56 168.485 341.223 167.5 344.008 167.5Z" fill="black"/>
<rect x="360" y="168.5" width="21" height="9" rx="1.33" fill="black"/>
<path opacity="0.4" fill-rule="evenodd" clip-rule="evenodd" d="M363.6 167.5H377.4C378.397 167.5 379.084 167.501 379.617 167.544C380.139 167.587 380.425 167.666 380.635 167.772C381.105 168.012 381.488 168.395 381.728 168.865C381.834 169.075 381.913 169.361 381.956 169.883C381.999 170.416 382 171.103 382 172.1V173.9C382 174.897 381.999 175.584 381.956 176.117C381.913 176.639 381.834 176.925 381.728 177.135C381.488 177.605 381.105 177.988 380.635 178.228C380.425 178.334 380.139 178.413 379.617 178.456C379.084 178.499 378.397 178.5 377.4 178.5H363.6C362.603 178.5 361.916 178.499 361.383 178.456C360.861 178.413 360.575 178.334 360.365 178.228C359.895 177.988 359.512 177.605 359.272 177.135C359.166 176.925 359.087 176.639 359.044 176.117C359.001 175.584 359 174.897 359 173.9V172.1C359 171.103 359.001 170.416 359.044 169.883C359.087 169.361 359.166 169.075 359.272 168.865C359.512 168.395 359.895 168.012 360.365 167.772C360.575 167.666 360.861 167.587 361.383 167.544C361.916 167.501 362.603 167.5 363.6 167.5ZM358 172.1C358 170.14 358 169.16 358.381 168.411C358.717 167.752 359.252 167.217 359.911 166.881C360.66 166.5 361.64 166.5 363.6 166.5H377.4C379.36 166.5 380.34 166.5 381.089 166.881C381.748 167.217 382.283 167.752 382.619 168.411C383 169.16 383 170.14 383 172.1V173.9C383 175.86 383 176.84 382.619 177.589C382.283 178.248 381.748 178.783 381.089 179.119C380.34 179.5 379.36 179.5 377.4 179.5H363.6C361.64 179.5 360.66 179.5 359.911 179.119C359.252 178.783 358.717 178.248 358.381 177.589C358 176.84 358 175.86 358 173.9V172.1ZM384 175C384.828 174.8 385.5 174.105 385.5 173C385.5 171.895 384.828 171.2 384 171L384 173L384 175Z" fill="black"/>
<rect x="489.5" y="162" width="66" height="23" rx="11.5" fill="#007AFF"/>
<path d="M510.787 167.723C508.188 167.723 506.337 169.5 506.337 171.932V171.948C506.337 174.223 507.948 175.899 510.247 175.899C511.891 175.899 512.937 175.061 513.376 174.115H513.542C513.542 174.206 513.534 174.297 513.534 174.389C513.443 176.68 512.638 178.539 510.737 178.539C509.683 178.539 508.944 177.991 508.628 177.153L508.603 177.07H506.495L506.512 177.161C506.894 178.996 508.537 180.299 510.737 180.299C513.75 180.299 515.568 177.908 515.568 173.874V173.857C515.568 169.541 513.343 167.723 510.787 167.723ZM510.778 174.256C509.417 174.256 508.429 173.26 508.429 171.874V171.857C508.429 170.521 509.483 169.466 510.803 169.466C512.131 169.466 513.169 170.537 513.169 171.907V171.923C513.169 173.276 512.131 174.256 510.778 174.256ZM518.656 172.239C519.42 172.239 519.976 171.658 519.976 170.927C519.976 170.188 519.42 169.616 518.656 169.616C517.901 169.616 517.337 170.188 517.337 170.927C517.337 171.658 517.901 172.239 518.656 172.239ZM518.656 178.398C519.42 178.398 519.976 177.825 519.976 177.086C519.976 176.348 519.42 175.775 518.656 175.775C517.901 175.775 517.337 176.348 517.337 177.086C517.337 177.825 517.901 178.398 518.656 178.398ZM527.556 180H529.606V177.701H531.216V175.933H529.606V168.022H526.576C524.949 170.496 523.247 173.251 521.695 175.949V177.701H527.556V180ZM523.687 175.982V175.858C524.849 173.824 526.236 171.608 527.464 169.732H527.589V175.982H523.687ZM535.5 180H537.642V168.022H535.508L532.379 170.222V172.239L535.359 170.13H535.5V180Z" fill="white"/>
<rect x="789.35" y="167" width="3.2" height="12" rx="1" fill="black"/>
<rect x="784.05" y="169.4" width="3.2" height="9.6" rx="1" fill="black"/>
<rect x="778.75" y="172" width="3.2" height="7" rx="1" fill="black"/>
<rect x="773.45" y="174.4" width="3.2" height="4.6" rx="1" fill="black"/>
<path d="M806.008 175.134C806.712 175.134 807.395 175.318 807.998 175.671L808.242 175.814C808.427 175.922 808.459 176.175 808.308 176.327L806.224 178.404C806.096 178.532 805.889 178.532 805.761 178.404L803.691 176.34C803.54 176.189 803.571 175.937 803.754 175.828L803.996 175.685C804.604 175.323 805.296 175.134 806.008 175.134Z" fill="black"/>
<path d="M806.008 171.317C807.758 171.317 809.438 171.897 810.807 172.972L811.001 173.124C811.155 173.245 811.168 173.474 811.03 173.612L809.786 174.853C809.671 174.967 809.489 174.98 809.358 174.883L809.207 174.771C808.282 174.084 807.167 173.715 806.008 173.715C804.842 173.715 803.721 174.088 802.794 174.783L802.642 174.897C802.511 174.995 802.329 174.982 802.213 174.867L800.97 173.627C800.831 173.489 800.844 173.261 800.998 173.14L801.19 172.988C802.562 171.903 804.25 171.317 806.008 171.317Z" fill="black"/>
<path d="M806.008 167.5C808.786 167.5 811.441 168.48 813.544 170.275L813.723 170.429C813.868 170.552 813.877 170.773 813.742 170.908L812.502 172.144C812.382 172.264 812.19 172.272 812.059 172.163L811.906 172.035C810.251 170.651 808.176 169.898 806.008 169.898C803.833 169.898 801.752 170.656 800.095 172.049L799.941 172.178C799.811 172.287 799.618 172.279 799.498 172.159L798.258 170.923C798.124 170.788 798.132 170.568 798.276 170.444L798.455 170.291C800.56 168.485 803.223 167.5 806.008 167.5Z" fill="black"/>
<rect x="821" y="168.5" width="21" height="9" rx="1.33" fill="black"/>
<path opacity="0.4" fill-rule="evenodd" clip-rule="evenodd" d="M824.6 167.5H838.4C839.397 167.5 840.084 167.501 840.617 167.544C841.139 167.587 841.425 167.666 841.635 167.772C842.105 168.012 842.488 168.395 842.728 168.865C842.834 169.075 842.913 169.361 842.956 169.883C842.999 170.416 843 171.103 843 172.1V173.9C843 174.897 842.999 175.584 842.956 176.117C842.913 176.639 842.834 176.925 842.728 177.135C842.488 177.605 842.105 177.988 841.635 178.228C841.425 178.334 841.139 178.413 840.617 178.456C840.084 178.499 839.397 178.5 838.4 178.5H824.6C823.603 178.5 822.916 178.499 822.383 178.456C821.861 178.413 821.575 178.334 821.365 178.228C820.895 177.988 820.512 177.605 820.272 177.135C820.166 176.925 820.087 176.639 820.044 176.117C820.001 175.584 820 174.897 820 173.9V172.1C820 171.103 820.001 170.416 820.044 169.883C820.087 169.361 820.166 169.075 820.272 168.865C820.512 168.395 820.895 168.012 821.365 167.772C821.575 167.666 821.861 167.587 822.383 167.544C822.916 167.501 823.603 167.5 824.6 167.5ZM819 172.1C819 170.14 819 169.16 819.381 168.411C819.717 167.752 820.252 167.217 820.911 166.881C821.66 166.5 822.64 166.5 824.6 166.5H838.4C840.36 166.5 841.34 166.5 842.089 166.881C842.748 167.217 843.283 167.752 843.619 168.411C844 169.16 844 170.14 844 172.1V173.9C844 175.86 844 176.84 843.619 177.589C843.283 178.248 842.748 178.783 842.089 179.119C841.34 179.5 840.36 179.5 838.4 179.5H824.6C822.64 179.5 821.66 179.5 820.911 179.119C820.252 178.783 819.717 178.248 819.381 177.589C819 176.84 819 175.86 819 173.9V172.1ZM845 175C845.828 174.8 846.5 174.105 846.5 173C846.5 171.895 845.828 171.2 845 171L845 173L845 175Z" fill="black"/>
<rect x="49.5" y="226" width="66" height="23" rx="11.5" fill="#34C759"/>
<path d="M70.7866 231.723C68.1885 231.723 66.3374 233.5 66.3374 235.932V235.948C66.3374 238.223 67.9477 239.899 70.2471 239.899C71.8906 239.899 72.9365 239.061 73.3764 238.115H73.5425C73.5425 238.206 73.5342 238.297 73.5342 238.389C73.4429 240.68 72.6377 242.539 70.7368 242.539C69.6826 242.539 68.9438 241.991 68.6284 241.153L68.6035 241.07H66.4951L66.5117 241.161C66.8935 242.996 68.5371 244.299 70.7368 244.299C73.75 244.299 75.5679 241.908 75.5679 237.874V237.857C75.5679 233.541 73.3432 231.723 70.7866 231.723ZM70.7783 238.256C69.417 238.256 68.4292 237.26 68.4292 235.874V235.857C68.4292 234.521 69.4834 233.466 70.8032 233.466C72.1313 233.466 73.1689 234.537 73.1689 235.907V235.923C73.1689 237.276 72.1313 238.256 70.7783 238.256ZM78.6564 236.239C79.4201 236.239 79.9762 235.658 79.9762 234.927C79.9762 234.188 79.4201 233.616 78.6564 233.616C77.901 233.616 77.3366 234.188 77.3366 234.927C77.3366 235.658 77.901 236.239 78.6564 236.239ZM78.6564 242.398C79.4201 242.398 79.9762 241.825 79.9762 241.086C79.9762 240.348 79.4201 239.775 78.6564 239.775C77.901 239.775 77.3366 240.348 77.3366 241.086C77.3366 241.825 77.901 242.398 78.6564 242.398ZM87.5555 244H89.6058V241.701H91.2162V239.933H89.6058V232.022H86.576C84.9491 234.496 83.2474 237.251 81.6952 239.949V241.701H87.5555V244ZM83.6873 239.982V239.858C84.8495 237.824 86.2357 235.608 87.4642 233.732H87.5887V239.982H83.6873ZM95.5 244H97.6416V232.022H95.5083L92.3789 234.222V236.239L95.3589 234.13H95.5V244Z" fill="white"/>
<rect x="326.35" y="231" width="3.2" height="12" rx="1" fill="black"/>
<rect x="321.05" y="233.4" width="3.2" height="9.6" rx="1" fill="black"/>
<rect x="315.75" y="236" width="3.2" height="7" rx="1" fill="black"/>
<rect x="310.45" y="238.4" width="3.2" height="4.6" rx="1" fill="black"/>
<path d="M344.008 239.134C344.712 239.134 345.395 239.318 345.998 239.671L346.242 239.814C346.427 239.922 346.459 240.175 346.308 240.327L344.224 242.404C344.096 242.532 343.889 242.532 343.761 242.404L341.691 240.34C341.54 240.189 341.571 239.937 341.754 239.828L341.996 239.685C342.604 239.323 343.296 239.134 344.008 239.134Z" fill="black"/>
<path d="M344.008 235.317C345.758 235.317 347.439 235.897 348.807 236.972L349.001 237.124C349.155 237.245 349.168 237.474 349.03 237.612L347.786 238.853C347.671 238.967 347.489 238.98 347.358 238.883L347.207 238.771C346.282 238.084 345.167 237.715 344.008 237.715C342.842 237.715 341.721 238.088 340.794 238.783L340.642 238.897C340.511 238.995 340.329 238.982 340.213 238.867L338.97 237.627C338.831 237.489 338.844 237.261 338.998 237.14L339.19 236.988C340.562 235.903 342.25 235.317 344.008 235.317Z" fill="black"/>
<path d="M344.008 231.5C346.786 231.5 349.441 232.48 351.544 234.275L351.723 234.429C351.868 234.552 351.877 234.773 351.742 234.908L350.502 236.144C350.382 236.264 350.19 236.272 350.059 236.163L349.906 236.035C348.251 234.651 346.176 233.898 344.008 233.898C341.833 233.898 339.752 234.656 338.095 236.049L337.941 236.178C337.811 236.287 337.618 236.279 337.498 236.159L336.258 234.923C336.124 234.788 336.132 234.568 336.276 234.444L336.455 234.291C338.56 232.485 341.223 231.5 344.008 231.5Z" fill="black"/>
<rect x="360" y="232.5" width="21" height="9" rx="1.33" fill="black"/>
<path opacity="0.4" fill-rule="evenodd" clip-rule="evenodd" d="M363.6 231.5H377.4C378.397 231.5 379.084 231.501 379.617 231.544C380.139 231.587 380.425 231.666 380.635 231.772C381.105 232.012 381.488 232.395 381.728 232.865C381.834 233.075 381.913 233.361 381.956 233.883C381.999 234.416 382 235.103 382 236.1V237.9C382 238.897 381.999 239.584 381.956 240.117C381.913 240.639 381.834 240.925 381.728 241.135C381.488 241.605 381.105 241.988 380.635 242.228C380.425 242.334 380.139 242.413 379.617 242.456C379.084 242.499 378.397 242.5 377.4 242.5H363.6C362.603 242.5 361.916 242.499 361.383 242.456C360.861 242.413 360.575 242.334 360.365 242.228C359.895 241.988 359.512 241.605 359.272 241.135C359.166 240.925 359.087 240.639 359.044 240.117C359.001 239.584 359 238.897 359 237.9V236.1C359 235.103 359.001 234.416 359.044 233.883C359.087 233.361 359.166 233.075 359.272 232.865C359.512 232.395 359.895 232.012 360.365 231.772C360.575 231.666 360.861 231.587 361.383 231.544C361.916 231.501 362.603 231.5 363.6 231.5ZM358 236.1C358 234.14 358 233.16 358.381 232.411C358.717 231.752 359.252 231.217 359.911 230.881C360.66 230.5 361.64 230.5 363.6 230.5H377.4C379.36 230.5 380.34 230.5 381.089 230.881C381.748 231.217 382.283 231.752 382.619 232.411C383 233.16 383 234.14 383 236.1V237.9C383 239.86 383 240.84 382.619 241.589C382.283 242.248 381.748 242.783 381.089 243.119C380.34 243.5 379.36 243.5 377.4 243.5H363.6C361.64 243.5 360.66 243.5 359.911 243.119C359.252 242.783 358.717 242.248 358.381 241.589C358 240.84 358 239.86 358 237.9V236.1ZM384 239C384.828 238.8 385.5 238.105 385.5 237C385.5 235.895 384.828 235.2 384 235L384 237L384 239Z" fill="black"/>
<rect x="489.5" y="226" width="66" height="23" rx="11.5" fill="#34C759"/>
<path d="M510.787 231.723C508.188 231.723 506.337 233.5 506.337 235.932V235.948C506.337 238.223 507.948 239.899 510.247 239.899C511.891 239.899 512.937 239.061 513.376 238.115H513.542C513.542 238.206 513.534 238.297 513.534 238.389C513.443 240.68 512.638 242.539 510.737 242.539C509.683 242.539 508.944 241.991 508.628 241.153L508.603 241.07H506.495L506.512 241.161C506.894 242.996 508.537 244.299 510.737 244.299C513.75 244.299 515.568 241.908 515.568 237.874V237.857C515.568 233.541 513.343 231.723 510.787 231.723ZM510.778 238.256C509.417 238.256 508.429 237.26 508.429 235.874V235.857C508.429 234.521 509.483 233.466 510.803 233.466C512.131 233.466 513.169 234.537 513.169 235.907V235.923C513.169 237.276 512.131 238.256 510.778 238.256ZM518.656 236.239C519.42 236.239 519.976 235.658 519.976 234.927C519.976 234.188 519.42 233.616 518.656 233.616C517.901 233.616 517.337 234.188 517.337 234.927C517.337 235.658 517.901 236.239 518.656 236.239ZM518.656 242.398C519.42 242.398 519.976 241.825 519.976 241.086C519.976 240.348 519.42 239.775 518.656 239.775C517.901 239.775 517.337 240.348 517.337 241.086C517.337 241.825 517.901 242.398 518.656 242.398ZM527.556 244H529.606V241.701H531.216V239.933H529.606V232.022H526.576C524.949 234.496 523.247 237.251 521.695 239.949V241.701H527.556V244ZM523.687 239.982V239.858C524.849 237.824 526.236 235.608 527.464 233.732H527.589V239.982H523.687ZM535.5 244H537.642V232.022H535.508L532.379 234.222V236.239L535.359 234.13H535.5V244Z" fill="white"/>
<rect x="789.35" y="231" width="3.2" height="12" rx="1" fill="black"/>
<rect x="784.05" y="233.4" width="3.2" height="9.6" rx="1" fill="black"/>
<rect x="778.75" y="236" width="3.2" height="7" rx="1" fill="black"/>
<rect x="773.45" y="238.4" width="3.2" height="4.6" rx="1" fill="black"/>
<path d="M806.008 239.134C806.712 239.134 807.395 239.318 807.998 239.671L808.242 239.814C808.427 239.922 808.459 240.175 808.308 240.327L806.224 242.404C806.096 242.532 805.889 242.532 805.761 242.404L803.691 240.34C803.54 240.189 803.571 239.937 803.754 239.828L803.996 239.685C804.604 239.323 805.296 239.134 806.008 239.134Z" fill="black"/>
<path d="M806.008 235.317C807.758 235.317 809.438 235.897 810.807 236.972L811.001 237.124C811.155 237.245 811.168 237.474 811.03 237.612L809.786 238.853C809.671 238.967 809.489 238.98 809.358 238.883L809.207 238.771C808.282 238.084 807.167 237.715 806.008 237.715C804.842 237.715 803.721 238.088 802.794 238.783L802.642 238.897C802.511 238.995 802.329 238.982 802.213 238.867L800.97 237.627C800.831 237.489 800.844 237.261 800.998 237.14L801.19 236.988C802.562 235.903 804.25 235.317 806.008 235.317Z" fill="black"/>
<path d="M806.008 231.5C808.786 231.5 811.441 232.48 813.544 234.275L813.723 234.429C813.868 234.552 813.877 234.773 813.742 234.908L812.502 236.144C812.382 236.264 812.19 236.272 812.059 236.163L811.906 236.035C810.251 234.651 808.176 233.898 806.008 233.898C803.833 233.898 801.752 234.656 800.095 236.049L799.941 236.178C799.811 236.287 799.618 236.279 799.498 236.159L798.258 234.923C798.124 234.788 798.132 234.568 798.276 234.444L798.455 234.291C800.56 232.485 803.223 231.5 806.008 231.5Z" fill="black"/>
<rect x="821" y="232.5" width="21" height="9" rx="1.33" fill="black"/>
<path opacity="0.4" fill-rule="evenodd" clip-rule="evenodd" d="M824.6 231.5H838.4C839.397 231.5 840.084 231.501 840.617 231.544C841.139 231.587 841.425 231.666 841.635 231.772C842.105 232.012 842.488 232.395 842.728 232.865C842.834 233.075 842.913 233.361 842.956 233.883C842.999 234.416 843 235.103 843 236.1V237.9C843 238.897 842.999 239.584 842.956 240.117C842.913 240.639 842.834 240.925 842.728 241.135C842.488 241.605 842.105 241.988 841.635 242.228C841.425 242.334 841.139 242.413 840.617 242.456C840.084 242.499 839.397 242.5 838.4 242.5H824.6C823.603 242.5 822.916 242.499 822.383 242.456C821.861 242.413 821.575 242.334 821.365 242.228C820.895 241.988 820.512 241.605 820.272 241.135C820.166 240.925 820.087 240.639 820.044 240.117C820.001 239.584 820 238.897 820 237.9V236.1C820 235.103 820.001 234.416 820.044 233.883C820.087 233.361 820.166 233.075 820.272 232.865C820.512 232.395 820.895 232.012 821.365 231.772C821.575 231.666 821.861 231.587 822.383 231.544C822.916 231.501 823.603 231.5 824.6 231.5ZM819 236.1C819 234.14 819 233.16 819.381 232.411C819.717 231.752 820.252 231.217 820.911 230.881C821.66 230.5 822.64 230.5 824.6 230.5H838.4C840.36 230.5 841.34 230.5 842.089 230.881C842.748 231.217 843.283 231.752 843.619 232.411C844 233.16 844 234.14 844 236.1V237.9C844 239.86 844 240.84 843.619 241.589C843.283 242.248 842.748 242.783 842.089 243.119C841.34 243.5 840.36 243.5 838.4 243.5H824.6C822.64 243.5 821.66 243.5 820.911 243.119C820.252 242.783 819.717 242.248 819.381 241.589C819 240.84 819 239.86 819 237.9V236.1ZM845 239C845.828 238.8 846.5 238.105 846.5 237C846.5 235.895 845.828 235.2 845 235L845 237L845 239Z" fill="black"/>
<rect x="49.5" y="290" width="66" height="23" rx="11.5" fill="#FF3B30"/>
<path d="M70.7866 295.723C68.1885 295.723 66.3374 297.5 66.3374 299.932V299.948C66.3374 302.223 67.9477 303.899 70.2471 303.899C71.8906 303.899 72.9365 303.061 73.3764 302.115H73.5425C73.5425 302.206 73.5342 302.297 73.5342 302.389C73.4429 304.68 72.6377 306.539 70.7368 306.539C69.6826 306.539 68.9438 305.991 68.6284 305.153L68.6035 305.07H66.4951L66.5117 305.161C66.8935 306.996 68.5371 308.299 70.7368 308.299C73.75 308.299 75.5679 305.908 75.5679 301.874V301.857C75.5679 297.541 73.3432 295.723 70.7866 295.723ZM70.7783 302.256C69.417 302.256 68.4292 301.26 68.4292 299.874V299.857C68.4292 298.521 69.4834 297.466 70.8032 297.466C72.1313 297.466 73.1689 298.537 73.1689 299.907V299.923C73.1689 301.276 72.1313 302.256 70.7783 302.256ZM78.6564 300.239C79.4201 300.239 79.9762 299.658 79.9762 298.927C79.9762 298.188 79.4201 297.616 78.6564 297.616C77.901 297.616 77.3366 298.188 77.3366 298.927C77.3366 299.658 77.901 300.239 78.6564 300.239ZM78.6564 306.398C79.4201 306.398 79.9762 305.825 79.9762 305.086C79.9762 304.348 79.4201 303.775 78.6564 303.775C77.901 303.775 77.3366 304.348 77.3366 305.086C77.3366 305.825 77.901 306.398 78.6564 306.398ZM87.5555 308H89.6058V305.701H91.2162V303.933H89.6058V296.022H86.576C84.9491 298.496 83.2474 301.251 81.6952 303.949V305.701H87.5555V308ZM83.6873 303.982V303.858C84.8495 301.824 86.2357 299.608 87.4642 297.732H87.5887V303.982H83.6873ZM95.5 308H97.6416V296.022H95.5083L92.3789 298.222V300.239L95.3589 298.13H95.5V308Z" fill="white"/>
<rect x="326.35" y="295" width="3.2" height="12" rx="1" fill="black"/>
<rect x="321.05" y="297.4" width="3.2" height="9.6" rx="1" fill="black"/>
<rect x="315.75" y="300" width="3.2" height="7" rx="1" fill="black"/>
<rect x="310.45" y="302.4" width="3.2" height="4.6" rx="1" fill="black"/>
<path d="M344.008 303.134C344.712 303.134 345.395 303.318 345.998 303.671L346.242 303.814C346.427 303.922 346.459 304.175 346.308 304.327L344.224 306.404C344.096 306.532 343.889 306.532 343.761 306.404L341.691 304.34C341.54 304.189 341.571 303.937 341.754 303.828L341.996 303.685C342.604 303.323 343.296 303.134 344.008 303.134Z" fill="black"/>
<path d="M344.008 299.317C345.758 299.317 347.439 299.897 348.807 300.972L349.001 301.124C349.155 301.245 349.168 301.474 349.03 301.612L347.786 302.853C347.671 302.967 347.489 302.98 347.358 302.883L347.207 302.771C346.282 302.084 345.167 301.715 344.008 301.715C342.842 301.715 341.721 302.088 340.794 302.783L340.642 302.897C340.511 302.995 340.329 302.982 340.213 302.867L338.97 301.627C338.831 301.489 338.844 301.261 338.998 301.14L339.19 300.988C340.562 299.903 342.25 299.317 344.008 299.317Z" fill="black"/>
<path d="M344.008 295.5C346.786 295.5 349.441 296.48 351.544 298.275L351.723 298.429C351.868 298.552 351.877 298.773 351.742 298.908L350.502 300.144C350.382 300.264 350.19 300.272 350.059 300.163L349.906 300.035C348.251 298.651 346.176 297.898 344.008 297.898C341.833 297.898 339.752 298.656 338.095 300.049L337.941 300.178C337.811 300.287 337.618 300.279 337.498 300.159L336.258 298.923C336.124 298.788 336.132 298.568 336.276 298.444L336.455 298.291C338.56 296.485 341.223 295.5 344.008 295.5Z" fill="black"/>
<rect x="360" y="296.5" width="21" height="9" rx="1.33" fill="black"/>
<path opacity="0.4" fill-rule="evenodd" clip-rule="evenodd" d="M363.6 295.5H377.4C378.397 295.5 379.084 295.501 379.617 295.544C380.139 295.587 380.425 295.666 380.635 295.772C381.105 296.012 381.488 296.395 381.728 296.865C381.834 297.075 381.913 297.361 381.956 297.883C381.999 298.416 382 299.103 382 300.1V301.9C382 302.897 381.999 303.584 381.956 304.117C381.913 304.639 381.834 304.925 381.728 305.135C381.488 305.605 381.105 305.988 380.635 306.228C380.425 306.334 380.139 306.413 379.617 306.456C379.084 306.499 378.397 306.5 377.4 306.5H363.6C362.603 306.5 361.916 306.499 361.383 306.456C360.861 306.413 360.575 306.334 360.365 306.228C359.895 305.988 359.512 305.605 359.272 305.135C359.166 304.925 359.087 304.639 359.044 304.117C359.001 303.584 359 302.897 359 301.9V300.1C359 299.103 359.001 298.416 359.044 297.883C359.087 297.361 359.166 297.075 359.272 296.865C359.512 296.395 359.895 296.012 360.365 295.772C360.575 295.666 360.861 295.587 361.383 295.544C361.916 295.501 362.603 295.5 363.6 295.5ZM358 300.1C358 298.14 358 297.16 358.381 296.411C358.717 295.752 359.252 295.217 359.911 294.881C360.66 294.5 361.64 294.5 363.6 294.5H377.4C379.36 294.5 380.34 294.5 381.089 294.881C381.748 295.217 382.283 295.752 382.619 296.411C383 297.16 383 298.14 383 300.1V301.9C383 303.86 383 304.84 382.619 305.589C382.283 306.248 381.748 306.783 381.089 307.119C380.34 307.5 379.36 307.5 377.4 307.5H363.6C361.64 307.5 360.66 307.5 359.911 307.119C359.252 306.783 358.717 306.248 358.381 305.589C358 304.84 358 303.86 358 301.9V300.1ZM384 303C384.828 302.8 385.5 302.105 385.5 301C385.5 299.895 384.828 299.2 384 299L384 301L384 303Z" fill="black"/>
<rect x="489.5" y="290" width="66" height="23" rx="11.5" fill="#FF3B30"/>
<path d="M510.787 295.723C508.188 295.723 506.337 297.5 506.337 299.932V299.948C506.337 302.223 507.948 303.899 510.247 303.899C511.891 303.899 512.937 303.061 513.376 302.115H513.542C513.542 302.206 513.534 302.297 513.534 302.389C513.443 304.68 512.638 306.539 510.737 306.539C509.683 306.539 508.944 305.991 508.628 305.153L508.603 305.07H506.495L506.512 305.161C506.894 306.996 508.537 308.299 510.737 308.299C513.75 308.299 515.568 305.908 515.568 301.874V301.857C515.568 297.541 513.343 295.723 510.787 295.723ZM510.778 302.256C509.417 302.256 508.429 301.26 508.429 299.874V299.857C508.429 298.521 509.483 297.466 510.803 297.466C512.131 297.466 513.169 298.537 513.169 299.907V299.923C513.169 301.276 512.131 302.256 510.778 302.256ZM518.656 300.239C519.42 300.239 519.976 299.658 519.976 298.927C519.976 298.188 519.42 297.616 518.656 297.616C517.901 297.616 517.337 298.188 517.337 298.927C517.337 299.658 517.901 300.239 518.656 300.239ZM518.656 306.398C519.42 306.398 519.976 305.825 519.976 305.086C519.976 304.348 519.42 303.775 518.656 303.775C517.901 303.775 517.337 304.348 517.337 305.086C517.337 305.825 517.901 306.398 518.656 306.398ZM527.556 308H529.606V305.701H531.216V303.933H529.606V296.022H526.576C524.949 298.496 523.247 301.251 521.695 303.949V305.701H527.556V308ZM523.687 303.982V303.858C524.849 301.824 526.236 299.608 527.464 297.732H527.589V303.982H523.687ZM535.5 308H537.642V296.022H535.508L532.379 298.222V300.239L535.359 298.13H535.5V308Z" fill="white"/>
<rect x="789.35" y="295" width="3.2" height="12" rx="1" fill="black"/>
<rect x="784.05" y="297.4" width="3.2" height="9.6" rx="1" fill="black"/>
<rect x="778.75" y="300" width="3.2" height="7" rx="1" fill="black"/>
<rect x="773.45" y="302.4" width="3.2" height="4.6" rx="1" fill="black"/>
<path d="M806.008 303.134C806.712 303.134 807.395 303.318 807.998 303.671L808.242 303.814C808.427 303.922 808.459 304.175 808.308 304.327L806.224 306.404C806.096 306.532 805.889 306.532 805.761 306.404L803.691 304.34C803.54 304.189 803.571 303.937 803.754 303.828L803.996 303.685C804.604 303.323 805.296 303.134 806.008 303.134Z" fill="black"/>
<path d="M806.008 299.317C807.758 299.317 809.438 299.897 810.807 300.972L811.001 301.124C811.155 301.245 811.168 301.474 811.03 301.612L809.786 302.853C809.671 302.967 809.489 302.98 809.358 302.883L809.207 302.771C808.282 302.084 807.167 301.715 806.008 301.715C804.842 301.715 803.721 302.088 802.794 302.783L802.642 302.897C802.511 302.995 802.329 302.982 802.213 302.867L800.97 301.627C800.831 301.489 800.844 301.261 800.998 301.14L801.19 300.988C802.562 299.903 804.25 299.317 806.008 299.317Z" fill="black"/>
<path d="M806.008 295.5C808.786 295.5 811.441 296.48 813.544 298.275L813.723 298.429C813.868 298.552 813.877 298.773 813.742 298.908L812.502 300.144C812.382 300.264 812.19 300.272 812.059 300.163L811.906 300.035C810.251 298.651 808.176 297.898 806.008 297.898C803.833 297.898 801.752 298.656 800.095 300.049L799.941 300.178C799.811 300.287 799.618 300.279 799.498 300.159L798.258 298.923C798.124 298.788 798.132 298.568 798.276 298.444L798.455 298.291C800.56 296.485 803.223 295.5 806.008 295.5Z" fill="black"/>
<rect x="821" y="296.5" width="21" height="9" rx="1.33" fill="black"/>
<path opacity="0.4" fill-rule="evenodd" clip-rule="evenodd" d="M824.6 295.5H838.4C839.397 295.5 840.084 295.501 840.617 295.544C841.139 295.587 841.425 295.666 841.635 295.772C842.105 296.012 842.488 296.395 842.728 296.865C842.834 297.075 842.913 297.361 842.956 297.883C842.999 298.416 843 299.103 843 300.1V301.9C843 302.897 842.999 303.584 842.956 304.117C842.913 304.639 842.834 304.925 842.728 305.135C842.488 305.605 842.105 305.988 841.635 306.228C841.425 306.334 841.139 306.413 840.617 306.456C840.084 306.499 839.397 306.5 838.4 306.5H824.6C823.603 306.5 822.916 306.499 822.383 306.456C821.861 306.413 821.575 306.334 821.365 306.228C820.895 305.988 820.512 305.605 820.272 305.135C820.166 304.925 820.087 304.639 820.044 304.117C820.001 303.584 820 302.897 820 301.9V300.1C820 299.103 820.001 298.416 820.044 297.883C820.087 297.361 820.166 297.075 820.272 296.865C820.512 296.395 820.895 296.012 821.365 295.772C821.575 295.666 821.861 295.587 822.383 295.544C822.916 295.501 823.603 295.5 824.6 295.5ZM819 300.1C819 298.14 819 297.16 819.381 296.411C819.717 295.752 820.252 295.217 820.911 294.881C821.66 294.5 822.64 294.5 824.6 294.5H838.4C840.36 294.5 841.34 294.5 842.089 294.881C842.748 295.217 843.283 295.752 843.619 296.411C844 297.16 844 298.14 844 300.1V301.9C844 303.86 844 304.84 843.619 305.589C843.283 306.248 842.748 306.783 842.089 307.119C841.34 307.5 840.36 307.5 838.4 307.5H824.6C822.64 307.5 821.66 307.5 820.911 307.119C820.252 306.783 819.717 306.248 819.381 305.589C819 304.84 819 303.86 819 301.9V300.1ZM845 303C845.828 302.8 846.5 302.105 846.5 301C846.5 299.895 845.828 299.2 845 299L845 301L845 303Z" fill="black"/>
<rect x="49.5" y="354" width="66" height="23" rx="11.5" fill="#5856D6"/>
<path d="M70.7866 359.723C68.1885 359.723 66.3374 361.5 66.3374 363.932V363.948C66.3374 366.223 67.9477 367.899 70.2471 367.899C71.8906 367.899 72.9365 367.061 73.3764 366.115H73.5425C73.5425 366.206 73.5342 366.297 73.5342 366.389C73.4429 368.68 72.6377 370.539 70.7368 370.539C69.6826 370.539 68.9438 369.991 68.6284 369.153L68.6035 369.07H66.4951L66.5117 369.161C66.8935 370.996 68.5371 372.299 70.7368 372.299C73.75 372.299 75.5679 369.908 75.5679 365.874V365.857C75.5679 361.541 73.3432 359.723 70.7866 359.723ZM70.7783 366.256C69.417 366.256 68.4292 365.26 68.4292 363.874V363.857C68.4292 362.521 69.4834 361.466 70.8032 361.466C72.1313 361.466 73.1689 362.537 73.1689 363.907V363.923C73.1689 365.276 72.1313 366.256 70.7783 366.256ZM78.6564 364.239C79.4201 364.239 79.9762 363.658 79.9762 362.927C79.9762 362.188 79.4201 361.616 78.6564 361.616C77.901 361.616 77.3366 362.188 77.3366 362.927C77.3366 363.658 77.901 364.239 78.6564 364.239ZM78.6564 370.398C79.4201 370.398 79.9762 369.825 79.9762 369.086C79.9762 368.348 79.4201 367.775 78.6564 367.775C77.901 367.775 77.3366 368.348 77.3366 369.086C77.3366 369.825 77.901 370.398 78.6564 370.398ZM87.5555 372H89.6058V369.701H91.2162V367.933H89.6058V360.022H86.576C84.9491 362.496 83.2474 365.251 81.6952 367.949V369.701H87.5555V372ZM83.6873 367.982V367.858C84.8495 365.824 86.2357 363.608 87.4642 361.732H87.5887V367.982H83.6873ZM95.5 372H97.6416V360.022H95.5083L92.3789 362.222V364.239L95.3589 362.13H95.5V372Z" fill="white"/>
<rect x="326.35" y="359" width="3.2" height="12" rx="1" fill="black"/>
<rect x="321.05" y="361.4" width="3.2" height="9.6" rx="1" fill="black"/>
<rect x="315.75" y="364" width="3.2" height="7" rx="1" fill="black"/>
<rect x="310.45" y="366.4" width="3.2" height="4.6" rx="1" fill="black"/>
<path d="M344.008 367.134C344.712 367.134 345.395 367.318 345.998 367.671L346.242 367.814C346.427 367.922 346.459 368.175 346.308 368.327L344.224 370.404C344.096 370.532 343.889 370.532 343.761 370.404L341.691 368.34C341.54 368.189 341.571 367.937 341.754 367.828L341.996 367.685C342.604 367.323 343.296 367.134 344.008 367.134Z" fill="black"/>
<path d="M344.008 363.317C345.758 363.317 347.439 363.897 348.807 364.972L349.001 365.124C349.155 365.245 349.168 365.474 349.03 365.612L347.786 366.853C347.671 366.967 347.489 366.98 347.358 366.883L347.207 366.771C346.282 366.084 345.167 365.715 344.008 365.715C342.842 365.715 341.721 366.088 340.794 366.783L340.642 366.897C340.511 366.995 340.329 366.982 340.213 366.867L338.97 365.627C338.831 365.489 338.844 365.261 338.998 365.14L339.19 364.988C340.562 363.903 342.25 363.317 344.008 363.317Z" fill="black"/>
<path d="M344.008 359.5C346.786 359.5 349.441 360.48 351.544 362.275L351.723 362.429C351.868 362.552 351.877 362.773 351.742 362.908L350.502 364.144C350.382 364.264 350.19 364.272 350.059 364.163L349.906 364.035C348.251 362.651 346.176 361.898 344.008 361.898C341.833 361.898 339.752 362.656 338.095 364.049L337.941 364.178C337.811 364.287 337.618 364.279 337.498 364.159L336.258 362.923C336.124 362.788 336.132 362.568 336.276 362.444L336.455 362.291C338.56 360.485 341.223 359.5 344.008 359.5Z" fill="black"/>
<rect x="360" y="360.5" width="21" height="9" rx="1.33" fill="black"/>
<path opacity="0.4" fill-rule="evenodd" clip-rule="evenodd" d="M363.6 359.5H377.4C378.397 359.5 379.084 359.501 379.617 359.544C380.139 359.587 380.425 359.666 380.635 359.772C381.105 360.012 381.488 360.395 381.728 360.865C381.834 361.075 381.913 361.361 381.956 361.883C381.999 362.416 382 363.103 382 364.1V365.9C382 366.897 381.999 367.584 381.956 368.117C381.913 368.639 381.834 368.925 381.728 369.135C381.488 369.605 381.105 369.988 380.635 370.228C380.425 370.334 380.139 370.413 379.617 370.456C379.084 370.499 378.397 370.5 377.4 370.5H363.6C362.603 370.5 361.916 370.499 361.383 370.456C360.861 370.413 360.575 370.334 360.365 370.228C359.895 369.988 359.512 369.605 359.272 369.135C359.166 368.925 359.087 368.639 359.044 368.117C359.001 367.584 359 366.897 359 365.9V364.1C359 363.103 359.001 362.416 359.044 361.883C359.087 361.361 359.166 361.075 359.272 360.865C359.512 360.395 359.895 360.012 360.365 359.772C360.575 359.666 360.861 359.587 361.383 359.544C361.916 359.501 362.603 359.5 363.6 359.5ZM358 364.1C358 362.14 358 361.16 358.381 360.411C358.717 359.752 359.252 359.217 359.911 358.881C360.66 358.5 361.64 358.5 363.6 358.5H377.4C379.36 358.5 380.34 358.5 381.089 358.881C381.748 359.217 382.283 359.752 382.619 360.411C383 361.16 383 362.14 383 364.1V365.9C383 367.86 383 368.84 382.619 369.589C382.283 370.248 381.748 370.783 381.089 371.119C380.34 371.5 379.36 371.5 377.4 371.5H363.6C361.64 371.5 360.66 371.5 359.911 371.119C359.252 370.783 358.717 370.248 358.381 369.589C358 368.84 358 367.86 358 365.9V364.1ZM384 367C384.828 366.8 385.5 366.105 385.5 365C385.5 363.895 384.828 363.2 384 363L384 365L384 367Z" fill="black"/>
<rect x="489.5" y="354" width="66" height="23" rx="11.5" fill="#5856D6"/>
<path d="M510.787 359.723C508.188 359.723 506.337 361.5 506.337 363.932V363.948C506.337 366.223 507.948 367.899 510.247 367.899C511.891 367.899 512.937 367.061 513.376 366.115H513.542C513.542 366.206 513.534 366.297 513.534 366.389C513.443 368.68 512.638 370.539 510.737 370.539C509.683 370.539 508.944 369.991 508.628 369.153L508.603 369.07H506.495L506.512 369.161C506.894 370.996 508.537 372.299 510.737 372.299C513.75 372.299 515.568 369.908 515.568 365.874V365.857C515.568 361.541 513.343 359.723 510.787 359.723ZM510.778 366.256C509.417 366.256 508.429 365.26 508.429 363.874V363.857C508.429 362.521 509.483 361.466 510.803 361.466C512.131 361.466 513.169 362.537 513.169 363.907V363.923C513.169 365.276 512.131 366.256 510.778 366.256ZM518.656 364.239C519.42 364.239 519.976 363.658 519.976 362.927C519.976 362.188 519.42 361.616 518.656 361.616C517.901 361.616 517.337 362.188 517.337 362.927C517.337 363.658 517.901 364.239 518.656 364.239ZM518.656 370.398C519.42 370.398 519.976 369.825 519.976 369.086C519.976 368.348 519.42 367.775 518.656 367.775C517.901 367.775 517.337 368.348 517.337 369.086C517.337 369.825 517.901 370.398 518.656 370.398ZM527.556 372H529.606V369.701H531.216V367.933H529.606V360.022H526.576C524.949 362.496 523.247 365.251 521.695 367.949V369.701H527.556V372ZM523.687 367.982V367.858C524.849 365.824 526.236 363.608 527.464 361.732H527.589V367.982H523.687ZM535.5 372H537.642V360.022H535.508L532.379 362.222V364.239L535.359 362.13H535.5V372Z" fill="white"/>
<rect x="789.35" y="359" width="3.2" height="12" rx="1" fill="black"/>
<rect x="784.05" y="361.4" width="3.2" height="9.6" rx="1" fill="black"/>
<rect x="778.75" y="364" width="3.2" height="7" rx="1" fill="black"/>
<rect x="773.45" y="366.4" width="3.2" height="4.6" rx="1" fill="black"/>
<path d="M806.008 367.134C806.712 367.134 807.395 367.318 807.998 367.671L808.242 367.814C808.427 367.922 808.459 368.175 808.308 368.327L806.224 370.404C806.096 370.532 805.889 370.532 805.761 370.404L803.691 368.34C803.54 368.189 803.571 367.937 803.754 367.828L803.996 367.685C804.604 367.323 805.296 367.134 806.008 367.134Z" fill="black"/>
<path d="M806.008 363.317C807.758 363.317 809.438 363.897 810.807 364.972L811.001 365.124C811.155 365.245 811.168 365.474 811.03 365.612L809.786 366.853C809.671 366.967 809.489 366.98 809.358 366.883L809.207 366.771C808.282 366.084 807.167 365.715 806.008 365.715C804.842 365.715 803.721 366.088 802.794 366.783L802.642 366.897C802.511 366.995 802.329 366.982 802.213 366.867L800.97 365.627C800.831 365.489 800.844 365.261 800.998 365.14L801.19 364.988C802.562 363.903 804.25 363.317 806.008 363.317Z" fill="black"/>
<path d="M806.008 359.5C808.786 359.5 811.441 360.48 813.544 362.275L813.723 362.429C813.868 362.552 813.877 362.773 813.742 362.908L812.502 364.144C812.382 364.264 812.19 364.272 812.059 364.163L811.906 364.035C810.251 362.651 808.176 361.898 806.008 361.898C803.833 361.898 801.752 362.656 800.095 364.049L799.941 364.178C799.811 364.287 799.618 364.279 799.498 364.159L798.258 362.923C798.124 362.788 798.132 362.568 798.276 362.444L798.455 362.291C800.56 360.485 803.223 359.5 806.008 359.5Z" fill="black"/>
<rect x="821" y="360.5" width="21" height="9" rx="1.33" fill="black"/>
<path opacity="0.4" fill-rule="evenodd" clip-rule="evenodd" d="M824.6 359.5H838.4C839.397 359.5 840.084 359.501 840.617 359.544C841.139 359.587 841.425 359.666 841.635 359.772C842.105 360.012 842.488 360.395 842.728 360.865C842.834 361.075 842.913 361.361 842.956 361.883C842.999 362.416 843 363.103 843 364.1V365.9C843 366.897 842.999 367.584 842.956 368.117C842.913 368.639 842.834 368.925 842.728 369.135C842.488 369.605 842.105 369.988 841.635 370.228C841.425 370.334 841.139 370.413 840.617 370.456C840.084 370.499 839.397 370.5 838.4 370.5H824.6C823.603 370.5 822.916 370.499 822.383 370.456C821.861 370.413 821.575 370.334 821.365 370.228C820.895 369.988 820.512 369.605 820.272 369.135C820.166 368.925 820.087 368.639 820.044 368.117C820.001 367.584 820 366.897 820 365.9V364.1C820 363.103 820.001 362.416 820.044 361.883C820.087 361.361 820.166 361.075 820.272 360.865C820.512 360.395 820.895 360.012 821.365 359.772C821.575 359.666 821.861 359.587 822.383 359.544C822.916 359.501 823.603 359.5 824.6 359.5ZM819 364.1C819 362.14 819 361.16 819.381 360.411C819.717 359.752 820.252 359.217 820.911 358.881C821.66 358.5 822.64 358.5 824.6 358.5H838.4C840.36 358.5 841.34 358.5 842.089 358.881C842.748 359.217 843.283 359.752 843.619 360.411C844 361.16 844 362.14 844 364.1V365.9C844 367.86 844 368.84 843.619 369.589C843.283 370.248 842.748 370.783 842.089 371.119C841.34 371.5 840.36 371.5 838.4 371.5H824.6C822.64 371.5 821.66 371.5 820.911 371.119C820.252 370.783 819.717 370.248 819.381 369.589C819 368.84 819 367.86 819 365.9V364.1ZM845 367C845.828 366.8 846.5 366.105 846.5 365C846.5 363.895 845.828 363.2 845 363L845 365L845 367Z" fill="black"/>
<path d="M39.5962 116.5C39.394 116.5 39.2271 116.583 38.981 116.702L33.6108 119.282C33.1934 119.484 33 119.73 33 120.064C33 120.398 33.1934 120.648 33.6108 120.846L38.981 123.426C39.2271 123.544 39.3984 123.628 39.6006 123.628C40.0005 123.628 40.3257 123.32 40.3257 122.806V117.322C40.3257 116.808 40.0005 116.5 39.5962 116.5Z" fill="black"/>
<path d="M47.647 124.193C49.5054 124.193 50.6709 123.248 50.6709 121.739V121.733C50.6709 120.562 49.9888 119.907 48.356 119.563L47.5234 119.386C46.5566 119.182 46.1646 118.838 46.1646 118.291V118.285C46.1646 117.625 46.7769 117.222 47.6362 117.222C48.5225 117.216 49.0972 117.646 49.1938 118.248L49.2046 118.312H50.5312L50.5259 118.242C50.4292 116.996 49.3604 116.056 47.6416 116.056C45.9658 116.056 44.7734 116.991 44.7734 118.376V118.382C44.7734 119.537 45.4609 120.278 47.0454 120.611L47.8779 120.783C48.877 120.998 49.2798 121.336 49.2798 121.895V121.9C49.2798 122.566 48.6245 123.028 47.6899 123.028C46.707 123.028 46.0142 122.598 45.9497 121.948L45.9443 121.895H44.6016L44.6069 121.97C44.7036 123.307 45.8477 124.193 47.647 124.193ZM54.3825 124.118C55.9778 124.118 56.7619 123.2 56.9499 122.442L56.966 122.394H55.6931L55.677 122.432C55.5481 122.7 55.1345 123.065 54.4094 123.065C53.5017 123.065 52.9323 122.453 52.9162 121.4H57.0197V120.96C57.0197 119.188 55.9885 118.017 54.3181 118.017C52.6477 118.017 51.5788 119.225 51.5788 121.073V121.078C51.5788 122.947 52.6369 124.118 54.3825 124.118ZM54.3342 119.064C55.0808 119.064 55.6233 119.542 55.7146 120.503H52.927C53.029 119.569 53.5876 119.064 54.3342 119.064ZM59.7377 124.097C60.5112 124.097 61.1342 123.764 61.4565 123.194H61.5478V124H62.8691V119.988C62.8691 118.747 62.0204 118.017 60.5112 118.017C59.1147 118.017 58.1694 118.672 58.0405 119.66L58.0351 119.708H59.2973L59.3027 119.687C59.437 119.3 59.8344 119.08 60.4467 119.08C61.1664 119.08 61.5478 119.402 61.5478 119.988V120.493L60.0385 120.584C58.6098 120.67 57.8095 121.282 57.8095 122.33V122.34C57.8095 123.409 58.6205 124.097 59.7377 124.097ZM59.1308 122.276V122.265C59.1308 121.782 59.4799 121.508 60.2265 121.459L61.5478 121.374V121.846C61.5478 122.544 60.9516 123.071 60.1459 123.071C59.5551 123.071 59.1308 122.775 59.1308 122.276ZM64.255 124H65.5924V120.589C65.5924 119.751 66.1779 119.22 67.0695 119.22C67.3004 119.22 67.5207 119.252 67.7355 119.295V118.097C67.6066 118.06 67.3971 118.033 67.193 118.033C66.4196 118.033 65.8825 118.403 65.6838 119.032H65.5924V118.129H64.255V124ZM70.9799 124.118C72.4677 124.118 73.3324 123.318 73.5258 122.115L73.5365 122.072L72.2743 122.077L72.2636 122.099C72.0971 122.716 71.6727 123.033 70.9799 123.033C70.0721 123.033 69.5297 122.303 69.5297 121.057V121.046C69.5297 119.816 70.0668 119.096 70.9799 119.096C71.7103 119.096 72.1454 119.504 72.2689 120.074L72.2743 120.09H73.5365V120.068C73.3861 118.854 72.4838 118.017 70.9745 118.017C69.2074 118.017 68.1708 119.15 68.1708 121.046V121.057C68.1708 122.974 69.2128 124.118 70.9799 124.118ZM74.6432 124H75.9806V120.579C75.9806 119.698 76.4747 119.139 77.2696 119.139C78.0807 119.139 78.4513 119.601 78.4513 120.514V124H79.7887V120.203C79.7887 118.806 79.0743 118.017 77.7638 118.017C76.9151 118.017 76.3512 118.398 76.0719 119.026H75.9806V115.857H74.6432V124Z" fill="black"/>
<path d="M71.0034 95.7231C68.4053 95.7231 66.5542 97.4995 66.5542 99.9316V99.9482C66.5542 102.223 68.1646 103.899 70.4639 103.899C72.1074 103.899 73.1533 103.061 73.5933 102.115H73.7593C73.7593 102.206 73.751 102.297 73.751 102.389C73.6597 104.68 72.8545 106.539 70.9536 106.539C69.8994 106.539 69.1606 105.991 68.8452 105.153L68.8203 105.07H66.7119L66.7285 105.161C67.1104 106.996 68.7539 108.299 70.9536 108.299C73.9668 108.299 75.7847 105.908 75.7847 101.874V101.857C75.7847 97.541 73.5601 95.7231 71.0034 95.7231ZM70.9951 102.256C69.6338 102.256 68.646 101.26 68.646 99.8735V99.8569C68.646 98.5205 69.7002 97.4663 71.02 97.4663C72.3481 97.4663 73.3857 98.5371 73.3857 99.9067V99.9233C73.3857 101.276 72.3481 102.256 70.9951 102.256ZM78.8732 100.239C79.6369 100.239 80.193 99.6577 80.193 98.9272C80.193 98.1885 79.6369 97.6157 78.8732 97.6157C78.1179 97.6157 77.5534 98.1885 77.5534 98.9272C77.5534 99.6577 78.1179 100.239 78.8732 100.239ZM78.8732 106.398C79.6369 106.398 80.193 105.825 80.193 105.086C80.193 104.348 79.6369 103.775 78.8732 103.775C78.1179 103.775 77.5534 104.348 77.5534 105.086C77.5534 105.825 78.1179 106.398 78.8732 106.398ZM87.7723 108H89.8226V105.701H91.433V103.933H89.8226V96.022H86.7928C85.1659 98.4956 83.4642 101.251 81.912 103.949V105.701H87.7723V108ZM83.9042 103.982V103.858C85.0663 101.824 86.4525 99.6079 87.681 97.7319H87.8055V103.982H83.9042ZM95.7168 108H97.8584V96.022H95.7251L92.5957 98.2217V100.239L95.5757 98.1304H95.7168V108Z" fill="black"/>
<rect x="326.35" y="103" width="3.2" height="12" rx="1" fill="black"/>
<rect x="321.05" y="105.4" width="3.2" height="9.6" rx="1" fill="black"/>
<rect x="315.75" y="108" width="3.2" height="7" rx="1" fill="black"/>
<rect x="310.45" y="110.4" width="3.2" height="4.6" rx="1" fill="black"/>
<path d="M344.008 111.134C344.712 111.134 345.395 111.318 345.998 111.671L346.242 111.814C346.427 111.922 346.459 112.175 346.308 112.327L344.224 114.404C344.096 114.532 343.889 114.532 343.761 114.404L341.691 112.34C341.54 112.189 341.571 111.937 341.754 111.828L341.996 111.685C342.604 111.323 343.296 111.134 344.008 111.134Z" fill="black"/>
<path d="M344.008 107.317C345.758 107.317 347.439 107.897 348.807 108.972L349.001 109.124C349.155 109.245 349.168 109.474 349.03 109.612L347.786 110.853C347.671 110.967 347.489 110.98 347.358 110.883L347.207 110.771C346.282 110.084 345.167 109.715 344.008 109.715C342.842 109.715 341.721 110.088 340.794 110.783L340.642 110.897C340.511 110.995 340.329 110.982 340.213 110.867L338.97 109.627C338.831 109.489 338.844 109.261 338.998 109.14L339.19 108.988C340.562 107.903 342.25 107.317 344.008 107.317Z" fill="black"/>
<path d="M344.008 103.5C346.786 103.5 349.441 104.48 351.544 106.275L351.723 106.429C351.868 106.552 351.877 106.773 351.742 106.908L350.502 108.144C350.382 108.264 350.19 108.272 350.059 108.163L349.906 108.035C348.251 106.651 346.176 105.898 344.008 105.898C341.833 105.898 339.752 106.656 338.095 108.049L337.941 108.178C337.811 108.287 337.618 108.279 337.498 108.159L336.258 106.923C336.124 106.788 336.132 106.568 336.276 106.444L336.455 106.291C338.56 104.485 341.223 103.5 344.008 103.5Z" fill="black"/>
<rect x="360" y="104.5" width="21" height="9" rx="1.33" fill="black"/>
<path opacity="0.4" fill-rule="evenodd" clip-rule="evenodd" d="M363.6 103.5H377.4C378.397 103.5 379.084 103.501 379.617 103.544C380.139 103.587 380.425 103.666 380.635 103.772C381.105 104.012 381.488 104.395 381.728 104.865C381.834 105.075 381.913 105.361 381.956 105.883C381.999 106.416 382 107.103 382 108.1V109.9C382 110.897 381.999 111.584 381.956 112.117C381.913 112.639 381.834 112.925 381.728 113.135C381.488 113.605 381.105 113.988 380.635 114.228C380.425 114.334 380.139 114.413 379.617 114.456C379.084 114.499 378.397 114.5 377.4 114.5H363.6C362.603 114.5 361.916 114.499 361.383 114.456C360.861 114.413 360.575 114.334 360.365 114.228C359.895 113.988 359.512 113.605 359.272 113.135C359.166 112.925 359.087 112.639 359.044 112.117C359.001 111.584 359 110.897 359 109.9V108.1C359 107.103 359.001 106.416 359.044 105.883C359.087 105.361 359.166 105.075 359.272 104.865C359.512 104.395 359.895 104.012 360.365 103.772C360.575 103.666 360.861 103.587 361.383 103.544C361.916 103.501 362.603 103.5 363.6 103.5ZM358 108.1C358 106.14 358 105.16 358.381 104.411C358.717 103.752 359.252 103.217 359.911 102.881C360.66 102.5 361.64 102.5 363.6 102.5H377.4C379.36 102.5 380.34 102.5 381.089 102.881C381.748 103.217 382.283 103.752 382.619 104.411C383 105.16 383 106.14 383 108.1V109.9C383 111.86 383 112.84 382.619 113.589C382.283 114.248 381.748 114.783 381.089 115.119C380.34 115.5 379.36 115.5 377.4 115.5H363.6C361.64 115.5 360.66 115.5 359.911 115.119C359.252 114.783 358.717 114.248 358.381 113.589C358 112.84 358 111.86 358 109.9V108.1ZM384 111C384.828 110.8 385.5 110.105 385.5 109C385.5 107.895 384.828 107.2 384 107L384 109L384 111Z" fill="black"/>
<path d="M491.596 116.5C491.394 116.5 491.227 116.583 490.981 116.702L485.611 119.282C485.193 119.484 485 119.73 485 120.064C485 120.398 485.193 120.648 485.611 120.846L490.981 123.426C491.227 123.544 491.398 123.628 491.601 123.628C492 123.628 492.326 123.32 492.326 122.806V117.322C492.326 116.808 492 116.5 491.596 116.5Z" fill="black"/>
<path d="M499.647 124.193C501.505 124.193 502.671 123.248 502.671 121.739V121.733C502.671 120.562 501.989 119.907 500.356 119.563L499.523 119.386C498.557 119.182 498.165 118.838 498.165 118.291V118.285C498.165 117.625 498.777 117.222 499.636 117.222C500.522 117.216 501.097 117.646 501.194 118.248L501.205 118.312H502.531L502.526 118.242C502.429 116.996 501.36 116.056 499.642 116.056C497.966 116.056 496.773 116.991 496.773 118.376V118.382C496.773 119.537 497.461 120.278 499.045 120.611L499.878 120.783C500.877 120.998 501.28 121.336 501.28 121.895V121.9C501.28 122.566 500.625 123.028 499.69 123.028C498.707 123.028 498.014 122.598 497.95 121.948L497.944 121.895H496.602L496.607 121.97C496.704 123.307 497.848 124.193 499.647 124.193ZM506.383 124.118C507.978 124.118 508.762 123.2 508.95 122.442L508.966 122.394H507.693L507.677 122.432C507.548 122.7 507.134 123.065 506.409 123.065C505.502 123.065 504.932 122.453 504.916 121.4H509.02V120.96C509.02 119.188 507.988 118.017 506.318 118.017C504.648 118.017 503.579 119.225 503.579 121.073V121.078C503.579 122.947 504.637 124.118 506.383 124.118ZM506.334 119.064C507.081 119.064 507.623 119.542 507.715 120.503H504.927C505.029 119.569 505.588 119.064 506.334 119.064ZM511.738 124.097C512.511 124.097 513.134 123.764 513.456 123.194H513.548V124H514.869V119.988C514.869 118.747 514.02 118.017 512.511 118.017C511.115 118.017 510.169 118.672 510.04 119.66L510.035 119.708H511.297L511.303 119.687C511.437 119.3 511.834 119.08 512.447 119.08C513.166 119.08 513.548 119.402 513.548 119.988V120.493L512.039 120.584C510.61 120.67 509.81 121.282 509.81 122.33V122.34C509.81 123.409 510.621 124.097 511.738 124.097ZM511.131 122.276V122.265C511.131 121.782 511.48 121.508 512.227 121.459L513.548 121.374V121.846C513.548 122.544 512.952 123.071 512.146 123.071C511.555 123.071 511.131 122.775 511.131 122.276ZM516.255 124H517.592V120.589C517.592 119.751 518.178 119.22 519.069 119.22C519.3 119.22 519.521 119.252 519.736 119.295V118.097C519.607 118.06 519.397 118.033 519.193 118.033C518.42 118.033 517.882 118.403 517.684 119.032H517.592V118.129H516.255V124ZM522.98 124.118C524.468 124.118 525.332 123.318 525.526 122.115L525.537 122.072L524.274 122.077L524.264 122.099C524.097 122.716 523.673 123.033 522.98 123.033C522.072 123.033 521.53 122.303 521.53 121.057V121.046C521.53 119.816 522.067 119.096 522.98 119.096C523.71 119.096 524.145 119.504 524.269 120.074L524.274 120.09H525.537V120.068C525.386 118.854 524.484 118.017 522.974 118.017C521.207 118.017 520.171 119.15 520.171 121.046V121.057C520.171 122.974 521.213 124.118 522.98 124.118ZM526.643 124H527.981V120.579C527.981 119.698 528.475 119.139 529.27 119.139C530.081 119.139 530.451 119.601 530.451 120.514V124H531.789V120.203C531.789 118.806 531.074 118.017 529.764 118.017C528.915 118.017 528.351 118.398 528.072 119.026H527.981V115.857H526.643V124Z" fill="black"/>
<path d="M511.003 95.7231C508.405 95.7231 506.554 97.4995 506.554 99.9316V99.9482C506.554 102.223 508.165 103.899 510.464 103.899C512.107 103.899 513.153 103.061 513.593 102.115H513.759C513.759 102.206 513.751 102.297 513.751 102.389C513.66 104.68 512.854 106.539 510.954 106.539C509.899 106.539 509.161 105.991 508.845 105.153L508.82 105.07H506.712L506.729 105.161C507.11 106.996 508.754 108.299 510.954 108.299C513.967 108.299 515.785 105.908 515.785 101.874V101.857C515.785 97.541 513.56 95.7231 511.003 95.7231ZM510.995 102.256C509.634 102.256 508.646 101.26 508.646 99.8735V99.8569C508.646 98.5205 509.7 97.4663 511.02 97.4663C512.348 97.4663 513.386 98.5371 513.386 99.9067V99.9233C513.386 101.276 512.348 102.256 510.995 102.256ZM518.873 100.239C519.637 100.239 520.193 99.6577 520.193 98.9272C520.193 98.1885 519.637 97.6157 518.873 97.6157C518.118 97.6157 517.553 98.1885 517.553 98.9272C517.553 99.6577 518.118 100.239 518.873 100.239ZM518.873 106.398C519.637 106.398 520.193 105.825 520.193 105.086C520.193 104.348 519.637 103.775 518.873 103.775C518.118 103.775 517.553 104.348 517.553 105.086C517.553 105.825 518.118 106.398 518.873 106.398ZM527.772 108H529.823V105.701H531.433V103.933H529.823V96.022H526.793C525.166 98.4956 523.464 101.251 521.912 103.949V105.701H527.772V108ZM523.904 103.982V103.858C525.066 101.824 526.453 99.6079 527.681 97.7319H527.806V103.982H523.904ZM535.717 108H537.858V96.022H535.725L532.596 98.2217V100.239L535.576 98.1304H535.717V108Z" fill="black"/>
<rect x="789.35" y="103" width="3.2" height="12" rx="1" fill="black"/>
<rect x="784.05" y="105.4" width="3.2" height="9.6" rx="1" fill="black"/>
<rect x="778.75" y="108" width="3.2" height="7" rx="1" fill="black"/>
<rect x="773.45" y="110.4" width="3.2" height="4.6" rx="1" fill="black"/>
<path d="M806.008 111.134C806.712 111.134 807.395 111.318 807.998 111.671L808.242 111.814C808.427 111.922 808.459 112.175 808.308 112.327L806.224 114.404C806.096 114.532 805.889 114.532 805.761 114.404L803.691 112.34C803.54 112.189 803.571 111.937 803.754 111.828L803.996 111.685C804.604 111.323 805.296 111.134 806.008 111.134Z" fill="black"/>
<path d="M806.008 107.317C807.758 107.317 809.438 107.897 810.807 108.972L811.001 109.124C811.155 109.245 811.168 109.474 811.03 109.612L809.786 110.853C809.671 110.967 809.489 110.98 809.358 110.883L809.207 110.771C808.282 110.084 807.167 109.715 806.008 109.715C804.842 109.715 803.721 110.088 802.794 110.783L802.642 110.897C802.511 110.995 802.329 110.982 802.213 110.867L800.97 109.627C800.831 109.489 800.844 109.261 800.998 109.14L801.19 108.988C802.562 107.903 804.25 107.317 806.008 107.317Z" fill="black"/>
<path d="M806.008 103.5C808.786 103.5 811.441 104.48 813.544 106.275L813.723 106.429C813.868 106.552 813.877 106.773 813.742 106.908L812.502 108.144C812.382 108.264 812.19 108.272 812.059 108.163L811.906 108.035C810.251 106.651 808.176 105.898 806.008 105.898C803.833 105.898 801.752 106.656 800.095 108.049L799.941 108.178C799.811 108.287 799.618 108.279 799.498 108.159L798.258 106.923C798.124 106.788 798.132 106.568 798.276 106.444L798.455 106.291C800.56 104.485 803.223 103.5 806.008 103.5Z" fill="black"/>
<rect x="821" y="104.5" width="21" height="9" rx="1.33" fill="black"/>
<path opacity="0.4" fill-rule="evenodd" clip-rule="evenodd" d="M824.6 103.5H838.4C839.397 103.5 840.084 103.501 840.617 103.544C841.139 103.587 841.425 103.666 841.635 103.772C842.105 104.012 842.488 104.395 842.728 104.865C842.834 105.075 842.913 105.361 842.956 105.883C842.999 106.416 843 107.103 843 108.1V109.9C843 110.897 842.999 111.584 842.956 112.117C842.913 112.639 842.834 112.925 842.728 113.135C842.488 113.605 842.105 113.988 841.635 114.228C841.425 114.334 841.139 114.413 840.617 114.456C840.084 114.499 839.397 114.5 838.4 114.5H824.6C823.603 114.5 822.916 114.499 822.383 114.456C821.861 114.413 821.575 114.334 821.365 114.228C820.895 113.988 820.512 113.605 820.272 113.135C820.166 112.925 820.087 112.639 820.044 112.117C820.001 111.584 820 110.897 820 109.9V108.1C820 107.103 820.001 106.416 820.044 105.883C820.087 105.361 820.166 105.075 820.272 104.865C820.512 104.395 820.895 104.012 821.365 103.772C821.575 103.666 821.861 103.587 822.383 103.544C822.916 103.501 823.603 103.5 824.6 103.5ZM819 108.1C819 106.14 819 105.16 819.381 104.411C819.717 103.752 820.252 103.217 820.911 102.881C821.66 102.5 822.64 102.5 824.6 102.5H838.4C840.36 102.5 841.34 102.5 842.089 102.881C842.748 103.217 843.283 103.752 843.619 104.411C844 105.16 844 106.14 844 108.1V109.9C844 111.86 844 112.84 843.619 113.589C843.283 114.248 842.748 114.783 842.089 115.119C841.34 115.5 840.36 115.5 838.4 115.5H824.6C822.64 115.5 821.66 115.5 820.911 115.119C820.252 114.783 819.717 114.248 819.381 113.589C819 112.84 819 111.86 819 109.9V108.1ZM845 111C845.828 110.8 846.5 110.105 846.5 109C846.5 107.895 845.828 107.2 845 107L845 109L845 111Z" fill="black"/>
</svg>
