<?xml version="1.0" encoding="UTF-8"?>
<svg id="Layer_1" xmlns="http://www.w3.org/2000/svg" xmlns:xlink="http://www.w3.org/1999/xlink" version="1.1" viewBox="0 0 3000 3000">
  <!-- Generator: Adobe Illustrator 30.3.0, SVG Export Plug-In . SVG Version: 2.1.3 Build 182)  -->
  <defs>
    <style>
      .st0 {
        fill: none;
      }

      .st1 {
        fill: #fff;
      }

      .st2 {
        clip-path: url(#clippath);
      }
    </style>
    <clipPath id="clippath">
      <rect class="st0" x="176" y="203.02" width="2648" height="2593.96"/>
    </clipPath>
  </defs>
  <g class="st2">
    <path class="st1" d="M1295.71,2077.83c-341.35-41.38-581.84-287.04-581.84-605.11,0-129.3,46.55-268.94,124.13-362.03-33.62-85.34-28.44-266.35,10.34-341.34,103.44-12.93,243.08,41.37,325.83,116.37,98.27-31.03,201.7-46.55,328.41-46.55s230.15,15.52,323.24,43.96c80.16-72.41,222.39-126.71,325.83-113.78,36.2,69.82,41.37,250.84,7.76,338.76,82.75,98.27,126.71,230.15,126.71,364.62,0,318.07-240.49,558.56-587.01,602.52,87.92,56.89,147.4,181.01,147.4,323.24v268.94c0,77.58,64.65,121.54,142.23,90.51,468.06-178.43,835.26-646.48,835.26-1225.73,0-731.82-594.76-1329.17-1326.58-1329.17-731.82,0-1321.41,597.35-1321.41,1329.17,0,574.08,364.62,1049.89,855.94,1228.32,69.82,25.86,137.06-20.69,137.06-90.51v-206.88c-36.2,15.52-82.75,25.86-124.13,25.86-170.67,0-271.52-93.09-343.93-266.35-28.44-69.82-59.47-111.19-118.95-118.95-31.03-2.59-41.38-15.51-41.38-31.03,0-31.03,51.72-54.31,103.44-54.31,74.99,0,139.64,46.55,206.87,142.23,51.72,74.99,106.02,108.61,170.67,108.61s106.02-23.27,165.5-82.75c43.96-43.96,77.58-82.75,108.61-108.61Z"/>
  </g>
</svg>