<?xml version="1.0" encoding="UTF-8"?>
<svg id="Layer_1" xmlns="http://www.w3.org/2000/svg" version="1.1" viewBox="0 0 3000 3000">
  <!-- Generator: Adobe Illustrator 30.3.0, SVG Export Plug-In . SVG Version: 2.1.3 Build 182)  -->
  <defs>
    <style>
      .st0, .st1, .st2 {
        isolation: isolate;
      }

      .st1 {
        font-family: MonaSans-Light, 'Mona Sans';
        font-weight: 300;
      }

      .st1, .st3, .st2 {
        fill: #fff;
      }

      .st1, .st2 {
        font-size: 305.91px;
      }

      .st2 {
        font-family: MonaSans-ExtraBold, 'Mona Sans';
        font-weight: 700;
      }
    </style>
  </defs>
  <path class="st3" d="M684.17,1476.74c0-115.16-93.14-208.3-208.3-208.3s-208.3,93.14-208.3,208.3c0,91.95,59.51,169.91,142.83,197.59,10.41,1.79,14.28-4.46,14.28-9.82,0-4.76-.3-19.04-.3-34.52-52.67,9.52-66.06-16.07-70.23-29.46-2.38-6.55-12.2-26.78-20.53-31.54-6.84-3.87-17.26-13.39-.3-13.69,16.07-.3,27.38,15.18,31.24,22.02,18.15,30.95,47.91,22.02,61,16.66,1.79-13.39,7.14-22.32,13.09-27.38-47.02-5.06-96.12-23.51-96.12-102.66,0-23.21,8.33-42.55,22.62-57.73-2.08-5.06-9.52-27.08,2.08-56.84,0,0,16.66-5.36,57.43,22.62,17.26-4.76,35.71-7.14,54.16-7.14s36.9,2.38,54.16,7.14c40.77-28.27,57.43-22.62,57.43-22.62,11.61,29.76,4.17,51.78,2.08,56.84,14.28,15.18,22.62,34.22,22.62,57.73,0,79.45-49.4,97.6-96.41,102.66,7.44,6.25,13.99,18.15,13.99,36.6,0,26.78-.3,52.97-.3,61.3,0,5.36,3.87,11.9,14.28,9.82,83.62-27.67,137.48-105.94,137.48-197.59Z"/>
  <g class="st0">
    <text class="st2" transform="translate(759.45 1592.95)"><tspan x="0" y="0">GitHub</tspan></text>
    <text class="st1" transform="translate(1764.18 1592.95)"><tspan x="0" y="0" xml:space="preserve"> Pages</tspan></text>
  </g>
</svg>